# xmcd CD database file
#
# Track frame offsets:
#	182
#	63610
#	88097
#	116492
#	146182
#	180242
#	198820
#
# Disc length: 2844 seconds
#
# Revision: 6
# Processed by: cddbd v1.5.2PL0 Copyright (c) Steve Scherf et al.
# Submitted via: CDex 1.70beta2
#
DISCID=5e0b1a07
DTITLE=John Coltrane - Coltrane (on Impulse!)
DYEAR=1962
DGENRE=Jazz
TTITLE0=Out Of This World
TTITLE1=Soul Eyes
TTITLE2=The Inch Worm
TTITLE3=Tunji
TTITLE4=Miles' Mode
TTITLE5=Big Nick *
TTITLE6=Up 'Gainst The Wall *
EXTD=YEAR: 1962
EXTT0=
EXTT1=
EXTT2=
EXTT3=
EXTT4=
EXTT5=
EXTT6=
PLAYORDER=
